<svg width="64" height="64" viewBox="0 0 64 64" fill="none" xmlns="http://www.w3.org/2000/svg">
<path d="M18 26.3125C18 27.1081 18.3161 27.8712 18.8787 28.4338C19.4413 28.9964 20.2044 29.3125 21 29.3125C21.7956 29.3125 22.5587 28.9964 23.1213 28.4338C23.6839 27.8712 24 27.1081 24 26.3125C24 25.5169 23.6839 24.7538 23.1213 24.1912C22.5587 23.6286 21.7956 23.3125 21 23.3125C20.2044 23.3125 19.4413 23.6286 18.8787 24.1912C18.3161 24.7538 18 25.5169 18 26.3125ZM40 26.3125C40 27.1081 40.3161 27.8712 40.8787 28.4338C41.4413 28.9964 42.2043 29.3125 43 29.3125C43.7957 29.3125 44.5587 28.9964 45.1213 28.4338C45.6839 27.8712 46 27.1081 46 26.3125C46 25.5169 45.6839 24.7538 45.1213 24.1912C44.5587 23.6286 43.7957 23.3125 43 23.3125C42.2043 23.3125 41.4413 23.6286 40.8787 24.1912C40.3161 24.7538 40 25.5169 40 26.3125ZM32 4C16.5375 4 4 16.5375 4 32C4 47.4625 16.5375 60 32 60C47.4625 60 60 47.4625 60 32C60 16.5375 47.4625 4 32 4ZM48.4375 48.4375C46.3 50.575 43.8125 52.25 41.0438 53.425C38.1875 54.6375 35.1437 55.25 32 55.25C28.8563 55.25 25.8125 54.6375 22.95 53.425C20.1854 52.2575 17.6743 50.5635 15.5562 48.4375C13.4187 46.3 11.7438 43.8125 10.5688 41.0438C9.3625 38.1875 8.75 35.1437 8.75 32C8.75 28.8563 9.3625 25.8125 10.575 22.95C11.7425 20.1854 13.4365 17.6743 15.5625 15.5562C17.7 13.4187 20.1875 11.7438 22.9562 10.5688C25.8125 9.3625 28.8563 8.75 32 8.75C35.1437 8.75 38.1875 9.3625 41.05 10.575C43.8146 11.7425 46.3257 13.4365 48.4437 15.5625C50.5812 17.7 52.2563 20.1875 53.4313 22.9562C54.6375 25.8125 55.25 28.8563 55.25 32C55.25 35.1437 54.6375 38.1875 53.425 41.05C52.2589 43.8135 50.5647 46.3229 48.4375 48.4375ZM41.5 33.3125H38.4938C38.2313 33.3125 38.0062 33.5125 37.9875 33.775C37.75 36.8688 35.1562 39.3125 32 39.3125C28.8438 39.3125 26.2438 36.8688 26.0125 33.775C25.9938 33.5125 25.7688 33.3125 25.5063 33.3125H22.5C22.4322 33.3124 22.3651 33.3261 22.3027 33.3528C22.2404 33.3795 22.1841 33.4186 22.1373 33.4677C22.0905 33.5168 22.0542 33.5749 22.0306 33.6385C22.007 33.7021 21.9966 33.7698 22 33.8375C22.275 39.1063 26.6562 43.3125 32 43.3125C37.3438 43.3125 41.725 39.1063 42 33.8375C42.0034 33.7698 41.993 33.7021 41.9694 33.6385C41.9458 33.5749 41.9095 33.5168 41.8627 33.4677C41.8159 33.4186 41.7596 33.3795 41.6973 33.3528C41.6349 33.3261 41.5678 33.3124 41.5 33.3125Z" fill="#009E25"/>
</svg>
