<svg width="64" height="64" viewBox="0 0 64 64" fill="none" xmlns="http://www.w3.org/2000/svg">
<path d="M32.0002 5.33301C17.2962 5.33301 5.3335 17.2957 5.3335 31.9997C5.3335 46.7037 17.2962 58.6663 32.0002 58.6663C46.7042 58.6663 58.6668 46.7037 58.6668 31.9997C58.6668 17.2957 46.7042 5.33301 32.0002 5.33301ZM32.0002 53.333C20.2375 53.333 10.6668 43.7623 10.6668 31.9997C10.6668 20.237 20.2375 10.6663 32.0002 10.6663C43.7628 10.6663 53.3335 20.237 53.3335 31.9997C53.3335 43.7623 43.7628 53.333 32.0002 53.333Z" fill="#009E25"/>
<path d="M34.6668 18.667H29.3335V34.667H45.3335V29.3337H34.6668V18.667Z" fill="#009E25"/>
</svg>
