<svg width="187" height="187" viewBox="0 0 187 187" fill="none" xmlns="http://www.w3.org/2000/svg">
<path d="M107.759 148.041C106.595 148.045 105.444 147.788 104.393 147.289C103.341 146.791 102.415 146.062 101.681 145.158L64.0474 98.4084C62.9014 97.0142 62.2749 95.2655 62.2749 93.4607C62.2749 91.656 62.9014 89.9072 64.0474 88.513L103.006 41.763C104.328 40.1718 106.229 39.1712 108.289 38.9812C110.349 38.7913 112.401 39.4275 113.992 40.7501C115.583 42.0726 116.584 43.9731 116.774 46.0334C116.964 48.0937 116.327 50.1451 115.005 51.7363L80.1762 93.4997L113.836 135.263C114.789 136.407 115.394 137.799 115.58 139.276C115.766 140.753 115.525 142.252 114.886 143.597C114.247 144.941 113.236 146.074 111.973 146.862C110.709 147.649 109.247 148.059 107.759 148.041Z" fill="#FEFEFD"/>
</svg>
