<svg width="80" height="20" viewBox="0 0 80 20" fill="none" xmlns="http://www.w3.org/2000/svg">
<path d="M0 0.328812H6.13852V14.913H15.725V19.6712H0V0.328812Z" fill="black"/>
<path d="M30.7325 0.328812H36.8511V11.8569C36.8511 12.9981 36.6717 14.0812 36.293 15.087C35.9343 16.0928 35.3563 16.9826 34.579 17.7563C33.8018 18.5106 32.9846 19.0522 32.1276 19.3617C30.9318 19.7872 29.4968 20 27.8227 20C26.8461 20 25.8097 19.942 24.6538 19.8066C23.5177 19.6712 22.5611 19.4197 21.7838 19.0135C21.0065 18.6267 20.309 18.0658 19.6712 17.3501C19.0334 16.6344 18.595 15.8801 18.3558 15.1257C17.9771 13.8878 17.7778 12.8046 17.7778 11.8569V0.328812H23.8964V12.1277C23.8964 13.1915 24.1954 14.0039 24.7933 14.6035C25.3912 15.2031 26.2283 15.4932 27.2846 15.4932C28.3409 15.4932 29.1779 15.2031 29.7758 14.6228C30.3737 14.0426 30.6727 13.2108 30.6727 12.1277C30.7325 12.1277 30.7325 0.328812 30.7325 0.328812Z" fill="black"/>
<path d="M60.9863 0.328812H67.1248V7.09864H73.8413V0.328812H79.9998V19.6712H73.8413V11.8375H67.1248V19.6712H60.9863V0.328812Z" fill="black"/>
<path d="M39.8604 12.9207H45.6999C45.8195 13.8491 46.0786 14.5455 46.4772 15.029C47.115 15.8027 48.0118 16.2089 49.1877 16.2089C50.0646 16.2089 50.7423 16.0155 51.2206 15.6093C51.6989 15.2031 51.9381 14.7389 51.9381 14.2166C51.9381 13.7137 51.7188 13.2689 51.2604 12.8627C50.8021 12.4758 49.7657 12.089 48.1115 11.7408C45.4209 11.1605 43.5076 10.3675 42.3516 9.40039C41.1957 8.43327 40.6177 7.17601 40.6177 5.66731C40.6177 4.68085 40.9167 3.73307 41.5146 2.84332C42.1125 1.95358 42.9894 1.25725 44.1852 0.754351C45.381 0.25145 46.9954 0 49.0681 0C51.5993 0 53.5524 0.464218 54.8678 1.37331C56.2031 2.30174 57.0602 4.08124 57.3192 6.09284H51.4597C51.3003 5.22244 50.9814 4.58414 50.4832 4.19729C49.9849 3.81044 49.3073 3.59768 48.4503 3.59768C47.7328 3.59768 47.1947 3.75242 46.8359 4.04255C46.4772 4.33269 46.2978 4.70019 46.2978 5.12573C46.2978 5.4352 46.4373 5.70599 46.7363 5.95745C47.0153 6.2089 47.7129 6.44101 48.7891 6.67311C51.4797 7.23404 53.393 7.81431 54.5489 8.37524C55.7049 8.95551 56.5619 9.67118 57.0801 10.5222C57.6182 11.3733 57.8773 12.3211 57.8773 13.3849C57.8773 14.6228 57.5185 15.764 56.821 16.8085C56.1234 17.853 55.1269 18.646 53.8713 19.1876C52.6157 19.7292 51.0213 20 49.0881 20C45.6999 20 43.3681 19.3617 42.0726 18.1045C40.7572 16.8472 40.0198 14.8743 39.8604 12.9207Z" fill="black"/>
</svg>
