<svg width="445" height="441" viewBox="0 0 445 441" fill="none" xmlns="http://www.w3.org/2000/svg">
<path d="M6.77024 264V174.545H67.8335V192.104H28.3913V210.45H63.946V228.052H28.3913V264H6.77024ZM89.1754 264V174.545H126.128C132.825 174.545 138.605 175.754 143.468 178.171C148.36 180.559 152.131 183.995 154.781 188.479C157.431 192.934 158.756 198.219 158.756 204.335C158.756 210.537 157.402 215.808 154.694 220.146C151.986 224.456 148.142 227.746 143.163 230.018C138.183 232.26 132.287 233.381 125.473 233.381H102.104V216.346H121.454C124.716 216.346 127.438 215.924 129.622 215.08C131.835 214.206 133.51 212.896 134.645 211.148C135.781 209.372 136.349 207.101 136.349 204.335C136.349 201.568 135.781 199.282 134.645 197.477C133.51 195.642 131.835 194.274 129.622 193.371C127.409 192.439 124.686 191.973 121.454 191.973H110.797V264H89.1754ZM139.537 223.116L161.814 264H138.227L116.387 223.116H139.537ZM181.07 264V174.545H243.443V192.104H202.691V210.45H240.255V228.052H202.691V246.441H243.443V264H181.07ZM315.792 201.364C315.5 198.161 314.205 195.672 311.904 193.895C309.633 192.09 306.386 191.187 302.164 191.187C299.368 191.187 297.039 191.551 295.175 192.279C293.311 193.007 291.914 194.012 290.982 195.293C290.05 196.545 289.57 197.987 289.541 199.617C289.482 200.957 289.744 202.136 290.327 203.155C290.938 204.174 291.812 205.077 292.947 205.863C294.112 206.62 295.51 207.29 297.141 207.873C298.771 208.455 300.606 208.964 302.644 209.401L310.332 211.148C314.758 212.109 318.66 213.391 322.038 214.992C325.445 216.594 328.298 218.501 330.599 220.714C332.928 222.927 334.69 225.475 335.884 228.358C337.078 231.241 337.689 234.473 337.718 238.055C337.689 243.704 336.262 248.552 333.438 252.6C330.613 256.647 326.551 259.749 321.251 261.903C315.981 264.058 309.618 265.136 302.164 265.136C294.68 265.136 288.157 264.015 282.596 261.772C277.034 259.53 272.71 256.123 269.623 251.551C266.536 246.98 264.949 241.2 264.862 234.211H285.566C285.74 237.094 286.512 239.496 287.881 241.418C289.249 243.34 291.128 244.796 293.515 245.786C295.932 246.776 298.728 247.271 301.902 247.271C304.814 247.271 307.289 246.878 309.327 246.092C311.395 245.305 312.982 244.213 314.088 242.816C315.195 241.418 315.762 239.816 315.792 238.011C315.762 236.322 315.238 234.881 314.219 233.687C313.2 232.464 311.628 231.415 309.502 230.542C307.405 229.639 304.726 228.809 301.465 228.052L292.118 225.868C284.372 224.092 278.271 221.224 273.816 217.263C269.361 213.274 267.148 207.887 267.177 201.102C267.148 195.57 268.633 190.721 271.632 186.557C274.631 182.393 278.781 179.146 284.081 176.817C289.38 174.487 295.423 173.322 302.207 173.322C309.138 173.322 315.151 174.502 320.247 176.86C325.372 179.19 329.347 182.466 332.171 186.688C334.996 190.911 336.437 195.803 336.495 201.364H315.792ZM359.093 264V174.545H380.714V210.45H415.963V174.545H437.541V264H415.963V228.052H380.714V264H359.093Z" fill="white"/>
<path d="M8.125 147V36.4545H38.1364V122.818H82.8296V147H8.125ZM171.021 36.4545H201.033V107.273C201.033 115.693 199.018 122.98 194.987 129.134C190.993 135.251 185.415 139.983 178.254 143.33C171.093 146.64 162.781 148.295 153.317 148.295C143.781 148.295 135.432 146.64 128.271 143.33C121.11 139.983 115.533 135.251 111.538 129.134C107.58 122.98 105.601 115.693 105.601 107.273V36.4545H135.612V104.682C135.612 108.1 136.368 111.159 137.879 113.858C139.391 116.521 141.478 118.608 144.141 120.119C146.84 121.631 149.898 122.386 153.317 122.386C156.771 122.386 159.83 121.631 162.493 120.119C165.156 118.608 167.243 116.521 168.754 113.858C170.266 111.159 171.021 108.1 171.021 104.682V36.4545ZM285.527 71C285.239 67.4015 283.89 64.5947 281.479 62.5795C279.104 60.5644 275.487 59.5568 270.629 59.5568C267.535 59.5568 264.998 59.9347 263.019 60.6903C261.075 61.41 259.636 62.3996 258.7 63.6591C257.765 64.9186 257.279 66.358 257.243 67.9773C257.171 69.3087 257.405 70.5142 257.945 71.5938C258.521 72.6373 259.42 73.5909 260.644 74.4545C261.867 75.2822 263.432 76.0379 265.34 76.7216C267.247 77.4053 269.514 78.017 272.141 78.5568L281.209 80.5C287.326 81.7955 292.562 83.5047 296.916 85.6278C301.271 87.7509 304.833 90.2519 307.604 93.1307C310.375 95.9735 312.408 99.1761 313.703 102.739C315.035 106.301 315.718 110.187 315.754 114.398C315.718 121.667 313.901 127.82 310.303 132.858C306.704 137.896 301.558 141.728 294.865 144.355C288.208 146.982 280.201 148.295 270.845 148.295C261.237 148.295 252.853 146.874 245.692 144.031C238.567 141.188 233.025 136.816 229.067 130.915C225.145 124.977 223.165 117.384 223.129 108.136H251.629C251.809 111.519 252.655 114.362 254.166 116.665C255.678 118.968 257.801 120.713 260.536 121.901C263.307 123.088 266.599 123.682 270.414 123.682C273.616 123.682 276.297 123.286 278.456 122.494C280.615 121.703 282.253 120.605 283.368 119.202C284.484 117.798 285.059 116.197 285.095 114.398C285.059 112.706 284.502 111.231 283.422 109.972C282.378 108.676 280.651 107.525 278.24 106.517C275.829 105.473 272.573 104.502 268.47 103.602L257.459 101.227C247.671 99.1042 239.952 95.5597 234.303 90.5938C228.689 85.5919 225.9 78.7727 225.936 70.1364C225.9 63.1193 227.771 56.9839 231.55 51.7301C235.364 46.4403 240.636 42.3201 247.365 39.3693C254.13 36.4186 261.885 34.9432 270.629 34.9432C279.554 34.9432 287.272 36.4365 293.786 39.4233C300.299 42.41 305.319 46.6203 308.845 52.054C312.408 57.4517 314.207 63.767 314.243 71H285.527ZM337.811 147V36.4545H367.822V79.6364H407.549V36.4545H437.561V147H407.549V103.818H367.822V147H337.811Z" fill="white"/>
<path d="M6.9304 342V285.273H18.924V308.678H43.2713V285.273H55.2372V342H43.2713V318.567H18.924V342H6.9304ZM71.3934 342H58.5411L78.1242 285.273H93.5802L113.136 342H100.283L86.0738 298.236H85.6306L71.3934 342ZM70.5901 319.702H100.948V329.065H70.5901V319.702ZM163.902 285.273V342H153.542L128.862 306.296H128.447V342H116.453V285.273H126.979L151.465 320.949H151.963V285.273H163.902ZM190.41 342H170.301V285.273H190.576C196.282 285.273 201.194 286.408 205.312 288.68C209.43 290.933 212.597 294.173 214.813 298.402C217.047 302.631 218.164 307.69 218.164 313.581C218.164 319.49 217.047 324.568 214.813 328.815C212.597 333.062 209.412 336.322 205.257 338.593C201.12 340.864 196.172 342 190.41 342ZM182.294 331.724H189.912C193.457 331.724 196.439 331.096 198.858 329.84C201.296 328.566 203.124 326.599 204.343 323.94C205.58 321.263 206.199 317.81 206.199 313.581C206.199 309.389 205.58 305.964 204.343 303.305C203.124 300.646 201.305 298.688 198.886 297.433C196.467 296.177 193.485 295.549 189.939 295.549H182.294V331.724ZM223.539 285.273H238.33L253.952 323.386H254.617L270.239 285.273H285.03V342H273.397V305.077H272.926L258.246 341.723H250.324L235.643 304.939H235.172V342H223.539V285.273ZM301.18 342H288.327L307.91 285.273H323.366L342.922 342H330.07L315.86 298.236H315.417L301.18 342ZM300.376 319.702H330.734V329.065H300.376V319.702ZM366.349 342H346.24V285.273H366.515C372.221 285.273 377.133 286.408 381.251 288.68C385.369 290.933 388.536 294.173 390.752 298.402C392.986 302.631 394.103 307.69 394.103 313.581C394.103 319.49 392.986 324.568 390.752 328.815C388.536 333.062 385.35 336.322 381.196 338.593C377.059 340.864 372.11 342 366.349 342ZM358.233 331.724H365.85C369.396 331.724 372.378 331.096 374.797 329.84C377.235 328.566 379.063 326.599 380.281 323.94C381.519 321.263 382.137 317.81 382.137 313.581C382.137 309.389 381.519 305.964 380.281 303.305C379.063 300.646 377.244 298.688 374.825 297.433C372.406 296.177 369.423 295.549 365.878 295.549H358.233V331.724ZM399.478 342V285.273H437.702V295.161H411.471V308.678H435.735V318.567H411.471V332.112H437.813V342H399.478Z" fill="white"/>
<path d="M57.9822 385.133H45.8501C45.6286 383.563 45.1761 382.169 44.4929 380.95C43.8097 379.713 42.9325 378.661 41.8615 377.793C40.7905 376.925 39.5533 376.26 38.1499 375.798C36.7649 375.337 35.2599 375.106 33.6349 375.106C30.6989 375.106 28.1413 375.835 25.9624 377.294C23.7834 378.734 22.0938 380.839 20.8935 383.609C19.6932 386.361 19.093 389.703 19.093 393.636C19.093 397.68 19.6932 401.078 20.8935 403.83C22.1122 406.581 23.8111 408.658 25.9901 410.062C28.169 411.465 30.6896 412.167 33.5518 412.167C35.1584 412.167 36.6449 411.955 38.0114 411.53C39.3963 411.105 40.6243 410.487 41.6953 409.674C42.7663 408.843 43.6527 407.837 44.3544 406.655C45.0746 405.473 45.5732 404.125 45.8501 402.611L57.9822 402.666C57.6683 405.27 56.8835 407.781 55.6278 410.2C54.3906 412.601 52.7195 414.752 50.6143 416.654C48.5277 418.538 46.0348 420.033 43.1357 421.141C40.255 422.231 36.9957 422.776 33.358 422.776C28.2983 422.776 23.7741 421.631 19.7855 419.341C15.8153 417.051 12.6761 413.737 10.3679 409.397C8.07812 405.058 6.93324 399.804 6.93324 393.636C6.93324 387.45 8.09659 382.188 10.4233 377.848C12.75 373.509 15.9077 370.203 19.8963 367.932C23.8849 365.642 28.3722 364.497 33.358 364.497C36.6449 364.497 39.6918 364.959 42.4986 365.882C45.3239 366.805 47.826 368.153 50.005 369.926C52.1839 371.68 53.9567 373.832 55.3232 376.38C56.7081 378.928 57.5945 381.846 57.9822 385.133ZM114.032 393.636C114.032 399.822 112.859 405.085 110.514 409.425C108.188 413.764 105.011 417.079 100.986 419.369C96.9787 421.64 92.4731 422.776 87.4688 422.776C82.4276 422.776 77.9035 421.631 73.8963 419.341C69.8892 417.051 66.7223 413.737 64.3956 409.397C62.0689 405.058 60.9056 399.804 60.9056 393.636C60.9056 387.45 62.0689 382.188 64.3956 377.848C66.7223 373.509 69.8892 370.203 73.8963 367.932C77.9035 365.642 82.4276 364.497 87.4688 364.497C92.4731 364.497 96.9787 365.642 100.986 367.932C105.011 370.203 108.188 373.509 110.514 377.848C112.859 382.188 114.032 387.45 114.032 393.636ZM101.872 393.636C101.872 389.629 101.272 386.25 100.072 383.499C98.89 380.747 97.2188 378.661 95.0583 377.239C92.8978 375.817 90.3679 375.106 87.4688 375.106C84.5696 375.106 82.0398 375.817 79.8793 377.239C77.7188 378.661 76.0384 380.747 74.8381 383.499C73.6563 386.25 73.0654 389.629 73.0654 393.636C73.0654 397.643 73.6563 401.023 74.8381 403.774C76.0384 406.526 77.7188 408.612 79.8793 410.034C82.0398 411.456 84.5696 412.167 87.4688 412.167C90.3679 412.167 92.8978 411.456 95.0583 410.034C97.2188 408.612 98.89 406.526 100.072 403.774C101.272 401.023 101.872 397.643 101.872 393.636ZM149.01 381.587C148.788 379.353 147.837 377.617 146.157 376.38C144.476 375.143 142.196 374.524 139.315 374.524C137.358 374.524 135.705 374.801 134.357 375.355C133.009 375.891 131.975 376.638 131.255 377.599C130.553 378.559 130.202 379.648 130.202 380.867C130.165 381.883 130.378 382.769 130.839 383.526C131.32 384.283 131.975 384.939 132.806 385.493C133.637 386.028 134.597 386.499 135.687 386.906C136.776 387.293 137.94 387.626 139.177 387.903L144.273 389.121C146.748 389.675 149.019 390.414 151.087 391.337C153.155 392.261 154.947 393.396 156.461 394.744C157.975 396.092 159.148 397.68 159.979 399.509C160.828 401.337 161.262 403.433 161.28 405.796C161.262 409.268 160.376 412.278 158.621 414.826C156.886 417.356 154.374 419.322 151.087 420.726C147.819 422.111 143.876 422.803 139.26 422.803C134.68 422.803 130.692 422.102 127.294 420.698C123.915 419.295 121.274 417.217 119.372 414.466C117.489 411.696 116.501 408.271 116.408 404.19H128.014C128.143 406.092 128.688 407.68 129.648 408.954C130.627 410.21 131.929 411.161 133.554 411.807C135.197 412.435 137.053 412.749 139.121 412.749C141.153 412.749 142.916 412.453 144.412 411.862C145.926 411.271 147.099 410.45 147.93 409.397C148.761 408.344 149.176 407.135 149.176 405.768C149.176 404.494 148.797 403.423 148.04 402.555C147.302 401.687 146.212 400.949 144.772 400.339C143.35 399.73 141.605 399.176 139.537 398.678L133.36 397.126C128.577 395.963 124.801 394.144 122.031 391.67C119.261 389.195 117.886 385.862 117.904 381.67C117.886 378.236 118.8 375.235 120.646 372.668C122.511 370.102 125.069 368.098 128.319 366.658C131.569 365.217 135.262 364.497 139.398 364.497C143.609 364.497 147.283 365.217 150.422 366.658C153.58 368.098 156.036 370.102 157.79 372.668C159.545 375.235 160.449 378.208 160.505 381.587H149.01ZM164.668 365.273H179.459L195.081 403.386H195.746L211.368 365.273H226.159V422H214.526V385.077H214.055L199.374 421.723H191.453L176.772 384.939H176.301V422H164.668V365.273ZM231.361 422V365.273H269.585V375.161H243.354V388.678H267.619V398.567H243.354V412.112H269.696V422H231.361ZM272.28 375.161V365.273H318.87V375.161H301.502V422H289.647V375.161H272.28ZM333.856 365.273V422H321.862V365.273H333.856ZM389.095 385.133H376.963C376.742 383.563 376.289 382.169 375.606 380.95C374.923 379.713 374.046 378.661 372.975 377.793C371.904 376.925 370.666 376.26 369.263 375.798C367.878 375.337 366.373 375.106 364.748 375.106C361.812 375.106 359.254 375.835 357.075 377.294C354.896 378.734 353.207 380.839 352.007 383.609C350.806 386.361 350.206 389.703 350.206 393.636C350.206 397.68 350.806 401.078 352.007 403.83C353.225 406.581 354.924 408.658 357.103 410.062C359.282 411.465 361.803 412.167 364.665 412.167C366.271 412.167 367.758 411.955 369.124 411.53C370.509 411.105 371.737 410.487 372.808 409.674C373.879 408.843 374.766 407.837 375.467 406.655C376.188 405.473 376.686 404.125 376.963 402.611L389.095 402.666C388.781 405.27 387.997 407.781 386.741 410.2C385.504 412.601 383.832 414.752 381.727 416.654C379.641 418.538 377.148 420.033 374.249 421.141C371.368 422.231 368.109 422.776 364.471 422.776C359.411 422.776 354.887 421.631 350.899 419.341C346.928 417.051 343.789 413.737 341.481 409.397C339.191 405.058 338.046 399.804 338.046 393.636C338.046 387.45 339.21 382.188 341.536 377.848C343.863 373.509 347.021 370.203 351.009 367.932C354.998 365.642 359.485 364.497 364.471 364.497C367.758 364.497 370.805 364.959 373.612 365.882C376.437 366.805 378.939 368.153 381.118 369.926C383.297 371.68 385.07 373.832 386.436 376.38C387.821 378.928 388.707 381.846 389.095 385.133ZM423.789 381.587C423.568 379.353 422.617 377.617 420.936 376.38C419.256 375.143 416.975 374.524 414.095 374.524C412.137 374.524 410.485 374.801 409.137 375.355C407.789 375.891 406.754 376.638 406.034 377.599C405.333 378.559 404.982 379.648 404.982 380.867C404.945 381.883 405.157 382.769 405.619 383.526C406.099 384.283 406.754 384.939 407.585 385.493C408.416 386.028 409.377 386.499 410.466 386.906C411.556 387.293 412.719 387.626 413.956 387.903L419.053 389.121C421.527 389.675 423.798 390.414 425.867 391.337C427.935 392.261 429.726 393.396 431.24 394.744C432.754 396.092 433.927 397.68 434.758 399.509C435.607 401.337 436.041 403.433 436.06 405.796C436.041 409.268 435.155 412.278 433.401 414.826C431.665 417.356 429.154 419.322 425.867 420.726C422.598 422.111 418.656 422.803 414.039 422.803C409.46 422.803 405.471 422.102 402.073 420.698C398.694 419.295 396.053 417.217 394.151 414.466C392.268 411.696 391.28 408.271 391.188 404.19H402.793C402.923 406.092 403.467 407.68 404.428 408.954C405.406 410.21 406.708 411.161 408.333 411.807C409.977 412.435 411.833 412.749 413.901 412.749C415.932 412.749 417.695 412.453 419.191 411.862C420.705 411.271 421.878 410.45 422.709 409.397C423.54 408.344 423.955 407.135 423.955 405.768C423.955 404.494 423.577 403.423 422.82 402.555C422.081 401.687 420.992 400.949 419.551 400.339C418.129 399.73 416.384 399.176 414.316 398.678L408.139 397.126C403.357 395.963 399.58 394.144 396.811 391.67C394.041 389.195 392.665 385.862 392.683 381.67C392.665 378.236 393.579 375.235 395.426 372.668C397.291 370.102 399.848 368.098 403.098 366.658C406.348 365.217 410.041 364.497 414.178 364.497C418.388 364.497 422.063 365.217 425.202 366.658C428.36 368.098 430.816 370.102 432.57 372.668C434.324 375.235 435.229 378.208 435.284 381.587H423.789Z" fill="white"/>
</svg>
