<svg width="187" height="187" viewBox="0 0 187 187" fill="none" xmlns="http://www.w3.org/2000/svg">
<path d="M77.9167 148.042C76.0962 148.045 74.3319 147.411 72.93 146.25C72.1411 145.595 71.4889 144.792 71.0109 143.886C70.5328 142.979 70.2383 141.987 70.1442 140.967C70.0501 139.946 70.1583 138.917 70.4625 137.938C70.7668 136.96 71.261 136.051 71.9171 135.263L106.824 93.4999L73.1638 51.6587C72.5166 50.8617 72.0332 49.9447 71.7416 48.9603C71.4499 47.9759 71.3557 46.9435 71.4643 45.9226C71.5729 44.9017 71.8822 43.9123 72.3745 43.0113C72.8667 42.1103 73.5321 41.3154 74.3325 40.6724C75.1387 39.9631 76.0828 39.4281 77.1055 39.1009C78.1283 38.7738 79.2076 38.6615 80.2758 38.7713C81.344 38.881 82.378 39.2104 83.3128 39.7387C84.2477 40.2669 85.0633 40.9828 85.7084 41.8412L123.342 88.5912C124.488 89.9854 125.115 91.7342 125.115 93.5389C125.115 95.3436 124.488 97.0924 123.342 98.4866L84.3838 145.237C83.6022 146.18 82.6092 146.925 81.4856 147.412C80.362 147.9 79.1393 148.115 77.9167 148.042Z" fill="#FEFEFD"/>
</svg>
