<svg width="201" height="165" viewBox="0 0 201 165" fill="none" xmlns="http://www.w3.org/2000/svg">
<g clip-path="url(#clip0_267_84)">
<path d="M59.246 13.5471C59.246 13.5471 61.6006 0.137246 78.0827 0.926063C94.5647 1.71488 113.401 32.4787 60.8158 84.5406C60.8158 84.5406 3.52108 43.5221 27.0668 8.81422C27.0668 8.81422 43.5489 -10.9062 59.246 13.5471Z" fill="#FFBBDA" stroke="#3A3A3A" stroke-miterlimit="10"/>
<path d="M79.0008 33.6302L64.4652 63.1555C63.8674 64.5635 63.0069 65.8434 61.9301 66.9261C61.0773 67.632 59.9968 67.9996 58.8927 67.9594C57.9425 67.9764 57.0041 67.7454 56.1693 67.2889C55.6183 66.9957 55.1345 66.59 54.7487 66.0978C54.2182 65.3163 53.771 64.4808 53.4144 63.6052L40.4721 34.9633C40.0042 33.766 39.3469 32.6526 38.5256 31.666C37.8396 31.0188 36.97 30.6025 36.0376 30.4749C35.7573 30.4474 35.4852 30.3641 35.2373 30.2297C34.9894 30.0954 34.7706 29.9127 34.5938 29.6923C34.4169 29.472 34.2856 29.2184 34.2073 28.9465C34.1291 28.6745 34.1057 28.3896 34.1383 28.1084C34.1383 26.4756 35.2449 25.2135 37.4582 24.3379C39.6715 23.4623 42.8502 23.0127 46.9943 23.0127C51.2953 23.0127 54.4609 23.3414 56.4911 23.9987C58.5212 24.6561 59.5337 25.6736 59.5285 27.0514C59.5285 27.9454 58.9791 28.7737 57.8803 29.5362C57.0405 30.112 56.6166 30.6484 56.6166 31.1612C56.6769 31.859 56.8686 32.539 57.1817 33.1648L61.106 42.1336C61.6711 43.4509 62.3147 44.1135 63.0368 44.1135C63.4137 44.1104 63.7844 44.0163 64.1177 43.8392C64.4509 43.6622 64.737 43.4072 64.9518 43.096C65.8318 41.8 66.5737 40.4146 67.1651 38.9626C68.829 35.2814 69.7996 33.1017 70.077 32.4233C70.3055 31.9395 70.4464 31.4186 70.4929 30.8851C70.4929 30.1594 69.9906 29.5441 69.0017 29.0393C68.0128 28.5344 67.3535 27.7298 67.3535 26.8385C67.3535 24.3142 70.7206 23.0521 77.4546 23.0521C80.8138 23.0521 83.1763 23.3203 84.5655 23.841C85.1683 24.0099 85.6986 24.3747 86.0734 24.8785C86.4483 25.3822 86.6466 25.9965 86.6375 26.6255C86.6375 28.2031 85.7297 29.105 83.914 29.3311C83.0496 29.3768 82.2045 29.6053 81.4339 30.0016C80.738 30.4854 79.9269 31.6949 79.0008 33.6302Z" fill="#76C3DF" stroke="#333333" stroke-miterlimit="10"/>
</g>
<g clip-path="url(#clip1_267_84)">
<path d="M150.566 103.193L173.249 123.009C175.373 124.855 176.906 125.779 177.848 125.779C179.431 125.779 180.212 124.099 180.212 120.73C180.212 116.92 179.992 114.311 179.531 112.921C179.302 112.226 178.929 111.587 178.435 111.046C177.941 110.505 177.338 110.074 176.666 109.782C175.7 109.37 174.842 108.74 174.161 107.942C173.659 107.197 173.416 106.309 173.469 105.413C173.469 102.873 175.203 101.254 178.669 100.554C181.137 100.164 183.636 99.9969 186.134 100.054C190.722 100.054 193.899 100.327 195.662 100.874C198.447 101.724 199.85 103.323 199.85 105.693C199.85 107.692 198.711 109.175 196.433 110.142C195.763 110.396 195.135 110.75 194.57 111.192C194.178 111.572 193.88 112.037 193.698 112.551C192.903 114.551 192.479 118.34 192.426 123.919V138.736C192.426 141.009 192.426 144.115 192.426 148.054C192.426 153.386 192.108 157.232 191.474 159.592C190.652 162.531 189.169 164.001 187.005 164.001C186.155 164.027 185.314 163.823 184.571 163.411C183.361 162.606 182.228 161.692 181.184 160.681L154.213 136.546C152.356 134.853 150.789 134.007 149.514 134.007C147.67 134.007 146.738 136.566 146.738 141.685C146.604 144.582 146.832 147.484 147.42 150.324C147.632 151.063 147.998 151.749 148.496 152.337C148.993 152.925 149.61 153.401 150.305 153.733C152.309 154.733 153.328 156.036 153.361 157.642C153.361 161.855 148.822 163.961 139.745 163.961C135.637 163.961 132.461 163.421 130.197 162.341C127.932 161.261 126.8 159.752 126.8 157.782C126.74 156.958 126.967 156.139 127.441 155.462C128.31 154.619 129.303 153.914 130.387 153.373C131.139 152.872 131.764 152.204 132.214 151.422C132.664 150.64 132.927 149.764 132.982 148.864C133.58 143.266 133.838 137.637 133.753 132.007C133.727 124.189 133.273 118.493 132.391 114.921C132.173 113.872 131.736 112.881 131.108 112.011C130.403 111.228 129.534 110.607 128.564 110.192C127.489 109.724 126.521 109.044 125.718 108.192C125.174 107.557 124.875 106.748 124.876 105.913C124.876 103.007 127.381 101.174 132.391 100.414C135.357 100.115 138.338 99.9946 141.318 100.054C143.107 99.9763 144.897 100.168 146.628 100.624C148.09 101.228 149.425 102.099 150.566 103.193Z" fill="#FAD53E" stroke="#333333" stroke-miterlimit="10"/>
</g>
<g clip-path="url(#clip2_267_84)">
<path d="M141.327 75.1145C139.606 75.074 137.894 75.373 136.29 75.9942C134.687 76.6155 133.224 77.5465 131.987 78.7331C130.75 77.5465 129.287 76.6155 127.683 75.9942C126.08 75.373 124.368 75.074 122.647 75.1145C120.637 75.104 118.648 75.5167 116.811 76.3253C116.335 75.874 115.817 75.4686 115.264 75.1145C116.764 74.1693 117.967 72.8247 118.733 71.2344C119.998 71.575 121.302 71.7463 122.612 71.7435C124.661 71.7544 126.687 71.3249 128.552 70.4845C130.419 71.3248 132.448 71.7543 134.499 71.7435C140.945 71.7435 146.177 67.6914 146.177 62.6968C146.177 57.7022 140.98 53.6433 134.534 53.6433C132.483 53.6324 130.454 54.0619 128.587 54.9022C126.722 54.0618 124.695 53.6323 122.647 53.6433C121.519 53.6443 120.395 53.7712 119.295 54.0217C119.069 53.0332 118.649 52.0983 118.06 51.2698C119.542 51.7432 121.091 51.9755 122.647 51.9578C125.447 51.9958 128.191 51.1739 130.502 49.605C132.813 51.1739 135.556 51.9958 138.357 51.9578C144.803 51.9578 150.035 47.9057 150.035 42.9111C150.035 37.9165 144.803 33.8576 138.357 33.8576C135.557 33.8232 132.814 34.6447 130.502 36.2104C128.19 34.6447 125.447 33.8232 122.647 33.8576C120.011 33.8238 117.422 34.5427 115.187 35.9283C112.969 34.5528 110.4 33.8344 107.783 33.8576C101.309 33.8576 96.105 37.9097 96.105 42.9111C96.1385 44.1443 96.4545 45.3537 97.0291 46.4479C97.6038 47.5421 98.422 48.4923 99.4219 49.2266C98.4231 49.9587 97.6054 50.9066 97.0308 51.9984C96.4561 53.0902 96.1395 54.2973 96.105 55.5283C96.1379 56.7615 96.4537 57.9712 97.0284 59.0654C97.6031 60.1597 98.4216 61.1098 99.4219 61.8437C98.4211 62.5787 97.6023 63.53 97.0276 64.6255C96.4529 65.7209 96.1374 66.9317 96.105 68.1661C96.105 70.9592 97.7357 73.4565 100.268 75.1145C97.7079 76.7724 96.105 79.2422 96.105 82.0628C96.105 87.0574 101.309 91.1095 107.783 91.1095C109.789 91.126 111.775 90.7228 113.612 89.9262C116.089 92.1209 119.312 93.3033 122.633 93.2353C124.354 93.2773 126.067 92.979 127.67 92.3577C129.274 91.7364 130.737 90.8046 131.973 89.6166C133.209 90.8046 134.672 91.7364 136.276 92.3577C137.879 92.979 139.592 93.2773 141.313 93.2353C147.766 93.2353 152.991 89.1832 152.991 84.1886C152.991 79.1941 147.801 75.1145 141.327 75.1145Z" fill="#3B9C3F" stroke="#333333" stroke-miterlimit="10"/>
</g>
<g clip-path="url(#clip3_267_84)">
<path d="M122.919 118.369C122.92 115.628 122.209 112.935 120.859 110.559C119.509 108.184 117.567 106.21 115.227 104.835C112.887 103.46 110.231 102.732 107.526 102.725C104.82 102.717 102.161 103.43 99.8133 104.792C97.9907 101.977 95.3205 99.8325 92.1993 98.6773C89.0781 97.5221 85.6724 97.4179 82.4881 98.38C79.3037 99.3422 76.5106 101.319 74.5236 104.018C72.5366 106.717 71.4618 109.993 71.4586 113.36C71.4586 113.514 71.4586 113.662 71.4586 113.809C67.8827 114.445 64.6426 116.338 62.3079 119.156C59.9732 121.973 58.6934 125.534 58.6934 129.213C58.6934 132.891 59.9732 136.452 62.3079 139.269C64.6426 142.087 67.8827 143.98 71.4586 144.616C71.4586 144.764 71.4586 144.911 71.4586 145.066C71.4604 148.287 72.4432 151.429 74.2728 154.063C76.1025 156.697 78.6899 158.694 81.6817 159.783C84.6736 160.872 87.9242 160.998 90.9897 160.145C94.0552 159.292 96.7862 157.502 98.81 155.018C102.05 156.821 105.821 157.387 109.437 156.612C113.054 155.837 116.275 153.772 118.517 150.794C120.758 147.816 121.87 144.121 121.651 140.382C121.431 136.644 119.895 133.109 117.32 130.421C119.074 128.955 120.485 127.114 121.453 125.031C122.421 122.947 122.921 120.672 122.919 118.369Z" fill="#FD5441" stroke="#3A3A3A" stroke-miterlimit="10"/>
<path d="M101.086 127.724L104.219 134.523C104.396 134.97 104.641 135.385 104.946 135.754C105.201 135.979 105.519 136.118 105.855 136.151C106.648 136.277 107.047 136.682 107.047 137.374C107.034 137.791 106.884 138.191 106.62 138.512C106.357 138.832 105.995 139.054 105.593 139.142C104.038 139.569 102.426 139.748 100.817 139.673C98.9691 139.709 97.1216 139.598 95.2912 139.341C94.7995 139.279 94.3367 139.071 93.9607 138.744C93.8037 138.605 93.6783 138.432 93.593 138.239C93.5077 138.046 93.4645 137.836 93.4663 137.625C93.4508 137.34 93.5446 137.06 93.728 136.844C94.0035 136.6 94.3325 136.425 94.6877 136.336C95.2039 136.159 95.4657 135.857 95.4657 135.429C95.4657 134.693 95.0149 134.236 94.1206 134.104C92.7741 133.947 91.419 133.878 90.0637 133.897C89.1716 133.826 88.2743 133.923 87.4173 134.185C87.2096 134.336 87.0504 134.546 86.9593 134.789C86.8286 135.049 86.759 135.336 86.7557 135.628C86.7442 135.714 86.7513 135.801 86.7764 135.884C86.8015 135.967 86.8441 136.043 86.9011 136.107C87.1924 136.261 87.4996 136.382 87.8172 136.468C88.1064 136.502 88.3733 136.643 88.5675 136.862C88.7617 137.082 88.8698 137.367 88.8714 137.662C88.8714 138.997 87.2986 139.663 84.1529 139.658C82.8269 139.705 81.5003 139.581 80.205 139.29C79.8601 139.217 79.5528 139.021 79.3402 138.736C79.1276 138.452 79.0241 138.099 79.0491 137.743C79.0289 137.452 79.12 137.164 79.3035 136.94C79.5576 136.692 79.8632 136.506 80.1978 136.395C80.8287 136.192 81.3923 135.818 81.8264 135.312C82.4506 134.386 82.9816 133.398 83.4113 132.365L85.7451 127.208C86.4026 125.819 86.9804 124.392 87.4755 122.936C87.7583 122.034 87.9126 121.097 87.9335 120.151C87.9212 119.465 87.992 118.779 88.1443 118.111C88.2809 117.683 88.5328 117.303 88.8714 117.013C89.249 116.623 89.7026 116.317 90.2032 116.114C90.7039 115.911 91.2407 115.816 91.7796 115.834C92.97 115.865 94.108 116.337 94.9785 117.16C96.3551 118.368 98.3908 121.89 101.086 127.724ZM89.5548 129.838H92.8047C93.4009 129.838 93.699 129.706 93.699 129.433C93.4435 128.461 93.0228 127.541 92.4557 126.715C92.2086 126.248 91.9216 125.804 91.5978 125.389C91.5214 125.291 91.4257 125.21 91.3168 125.152C91.2079 125.094 91.0882 125.059 90.9653 125.05C90.5654 125.05 90.2382 125.426 89.9692 126.177L89.4894 127.37C89.1701 128.022 88.9262 128.71 88.7623 129.418C88.7817 129.698 89.0459 129.838 89.5548 129.838Z" fill="#76C3DF" stroke="#333333" stroke-miterlimit="10"/>
</g>
<g clip-path="url(#clip4_267_84)">
<path d="M52.5443 94.5215C52.9888 94.5493 53.4186 94.6887 53.7928 94.9264C54.167 95.164 54.473 95.492 54.6817 95.879C55.3021 96.8209 55.6195 97.9248 55.5923 99.0467C55.5291 100.596 55.1096 102.111 54.3654 103.478C53.6514 104.98 52.6377 106.327 51.3845 107.437C50.6369 108.066 50.2631 108.575 50.2631 108.964C50.2631 109.059 50.2631 109.436 50.3685 110.105C50.4612 110.72 50.5093 111.341 50.5123 111.962C50.5555 113.728 50.2338 115.484 49.5665 117.124C48.8992 118.764 47.9004 120.254 46.6304 121.503C44.0782 123.922 41.0055 125.746 37.6398 126.839C33.7459 128.139 29.6553 128.777 25.5436 128.724C24.4895 128.728 23.4361 128.665 22.3902 128.536C21.7541 128.456 21.1143 128.409 20.4732 128.394C20.1243 128.346 19.7687 128.377 19.4344 128.487C19.1001 128.597 18.7964 128.782 18.5472 129.027C18.298 129.272 18.1102 129.57 17.9987 129.899C17.8871 130.228 17.8549 130.578 17.9045 130.921C17.9087 131.454 18.0656 131.974 18.3573 132.423C18.6489 132.871 19.0634 133.23 19.5531 133.457C20.9597 134.141 22.519 134.465 24.0867 134.4C26.0131 134.349 27.9341 134.176 29.8377 133.881C33.7208 133.271 37.6392 132.903 41.5696 132.778C45.4035 132.778 48.3365 133.4 50.4452 134.664C52.1223 135.614 53.5042 136.996 54.4421 138.661C55.4179 140.347 55.9269 142.255 55.9182 144.195C55.8385 147.622 54.5742 150.921 52.3334 153.547C49.4899 157.104 45.3045 159.741 39.7772 161.457C34.8997 162.87 29.8322 163.548 24.7481 163.465C17.5722 163.465 11.7541 162.384 7.29397 160.222C5.32596 159.292 3.61838 157.903 2.31941 156.177C1.15711 154.702 0.511508 152.896 0.479108 151.03C0.47192 149.806 0.835651 148.608 1.52386 147.589C2.15064 146.597 3.07026 145.818 4.15971 145.355C5.1182 144.968 5.61662 144.553 5.61662 144.11C5.61662 143.667 5.21405 143.252 4.40892 142.583C1.85294 140.452 0.574957 138.252 0.574957 135.984C0.664996 134.247 1.33933 132.589 2.49194 131.27C3.70878 129.669 5.29574 128.376 7.12145 127.499C7.89782 127.122 8.28122 126.735 8.28122 126.358C8.28122 125.981 7.66778 125.217 6.70929 124.322C5.15189 123.015 3.90018 121.392 3.03991 119.564C2.17964 117.737 1.73114 115.748 1.72515 113.735C1.7309 111.581 2.3412 109.47 3.48877 107.635C4.73007 105.635 6.41816 103.939 8.42499 102.676C13.5635 99.3578 19.5884 97.6154 25.7353 97.6703C28.572 97.7037 31.398 98.0195 34.17 98.613C36.1713 99.0655 38.2069 99.3556 40.2565 99.4803C43.7837 99.4803 47.2982 98.1134 50.7998 95.3794C51.2863 94.9357 51.8915 94.638 52.5443 94.5215ZM15.652 147.787C14.8469 147.787 14.4443 148.239 14.4443 149.163C14.4443 151.049 15.4763 152.567 17.5402 153.717C20.0256 154.973 22.7996 155.574 25.5916 155.461C28.1327 155.573 30.6688 155.148 33.0294 154.216C34.825 153.399 35.7228 152.24 35.7228 150.738C35.7206 150.349 35.6279 149.966 35.4518 149.618C35.2757 149.27 35.0208 148.966 34.7068 148.73C33.994 148.166 33.0999 147.872 32.186 147.9C31.4382 147.915 30.6921 147.978 29.9527 148.089C27.9478 148.385 25.9224 148.527 23.895 148.513C22.2944 148.519 20.6946 148.44 19.1026 148.277C18.1748 148.213 17.2525 148.087 16.3421 147.9C16.1161 147.842 15.8851 147.804 15.652 147.787ZM26.1954 104.42C25.4466 104.401 24.7036 104.555 24.0261 104.869C23.3487 105.184 22.7555 105.65 22.2943 106.23C21.2637 107.615 20.7492 109.306 20.8374 111.02C20.7161 113.854 21.2639 116.677 22.4381 119.269C23.5052 121.311 24.911 122.333 26.6555 122.333C27.4386 122.364 28.2179 122.209 28.9271 121.881C29.6363 121.552 30.2545 121.061 30.7291 120.447C31.8016 118.934 32.3311 117.113 32.2339 115.271C32.2339 111.868 31.7067 109.228 30.662 107.333C30.2688 106.492 29.6458 105.773 28.8622 105.259C28.0787 104.745 27.1655 104.454 26.2242 104.42H26.1954Z" fill="#2871D7" stroke="#3A3A3A" stroke-miterlimit="10"/>
</g>
<defs>
<clipPath id="clip0_267_84">
<rect width="74.7499" height="84.5532" fill="white" transform="translate(21 0.5)"/>
</clipPath>
<clipPath id="clip1_267_84">
<rect width="75.9753" height="64.9467" fill="white" transform="translate(124.375 99.5537)"/>
</clipPath>
<clipPath id="clip2_267_84">
<rect width="57.5942" height="60.045" fill="white" transform="translate(95.7578 33.5137)"/>
</clipPath>
<clipPath id="clip3_267_84">
<rect width="64.9467" height="63.7213" fill="white" transform="translate(58.3354 97.3516)"/>
</clipPath>
<clipPath id="clip4_267_84">
<rect width="56.3688" height="69.8483" fill="white" transform="translate(0 94.0498)"/>
</clipPath>
</defs>
</svg>
