<svg width="211" height="148" viewBox="0 0 211 148" fill="none" xmlns="http://www.w3.org/2000/svg">
<g clip-path="url(#clip0_219_93)">
<path d="M190.399 64.4779C188.79 60.1134 184.696 57.3056 179.915 58.5713C169.68 61.2627 161.507 70.2099 158.568 80.1464C158.189 81.2963 158.262 82.5464 158.772 83.645C159.282 84.7436 160.191 85.6092 161.317 86.0676C160.271 87.959 159.869 90.137 160.172 92.2748C160.475 94.4126 161.467 96.395 162.998 97.9244C167.993 102.904 174.1 106.638 180.822 108.821C187.153 111.134 193.221 105.257 193.44 99.2629C193.864 87.5806 194.463 75.651 190.399 64.4779Z" fill="#B0DCF2"/>
<path d="M165.221 84.5257C167.195 76.3932 174.359 70.763 181.392 66.8931C185.185 64.8124 189.177 63.1116 193.308 61.8158C196.92 60.6519 200.868 60.2591 204.406 58.9061C204.962 58.6879 205.152 57.6986 204.406 57.5822C200.531 56.9857 196.101 58.4406 192.46 59.6044C188.057 60.9888 183.816 62.8424 179.813 65.1328C172.502 69.3227 165.396 75.5494 163.393 84.0456C163.115 85.224 164.855 85.7332 165.221 84.5402V84.5257Z" fill="#416AB1"/>
<path d="M168.145 84.2927C174.047 80.7728 180.458 78.1771 187.153 76.5966C193.732 75.04 200.443 74.7781 207.111 73.847C207.229 73.819 207.335 73.7521 207.41 73.6571C207.486 73.562 207.527 73.4444 207.527 73.3233C207.527 73.2021 207.486 73.0845 207.41 72.9895C207.335 72.8944 207.229 72.8275 207.111 72.7995C193.308 70.9519 178.979 75.8401 167.312 82.8961C167.118 83.006 166.976 83.1881 166.917 83.4023C166.858 83.6165 166.887 83.8452 166.997 84.0381C167.108 84.231 167.291 84.3724 167.506 84.431C167.721 84.4897 167.951 84.4609 168.145 84.3509V84.2927Z" fill="#416AB1"/>
<path d="M168.701 88.6281C177.013 86.8866 185.632 87.2569 193.762 89.7047C197.438 90.6962 200.736 92.752 203.236 95.6113C205.473 98.1718 207.345 101.329 210.196 103.278C210.723 103.627 211.22 102.958 211 102.478C207.623 95.5967 202.081 89.3846 194.478 87.2896C185.886 84.9023 176.824 84.727 168.145 86.7805C167.913 86.8601 167.721 87.0247 167.606 87.2406C167.492 87.4566 167.465 87.7079 167.53 87.9432C167.595 88.1786 167.748 88.3804 167.957 88.5076C168.167 88.6348 168.417 88.6779 168.657 88.6281H168.701Z" fill="#416AB1"/>
<path d="M165.455 91.9888C172.531 94.5638 179.842 96.8333 185.793 101.838C188.482 104.103 190.953 106.611 193.177 109.33C195.428 112.08 197.446 115.15 200.487 116.968C200.586 117.02 200.699 117.04 200.809 117.024C200.92 117.008 201.022 116.957 201.102 116.879C201.182 116.802 201.235 116.701 201.253 116.591C201.271 116.482 201.254 116.369 201.204 116.27C199.216 113.205 197.007 110.288 194.595 107.541C192.163 104.595 189.407 101.931 186.378 99.5975C180.398 94.9275 172.941 92.8908 165.908 90.3884C164.811 90.0102 164.358 91.7123 165.425 92.1051L165.455 91.9888Z" fill="#416AB1"/>
<path d="M147.836 34.145L144.912 32.8648C142.261 31.6405 139.531 30.5955 136.739 29.7369C135.487 29.4593 134.216 29.2745 132.937 29.1841C136.958 29.4023 134.311 29.1841 133.171 28.9076C130.568 28.2239 127.951 27.6274 125.319 27.0891C119.354 25.8816 113.447 25.0814 107.452 26.4781C102.305 27.671 97.0856 33.3158 99.1033 38.8587C99.5627 40.3511 100.57 41.6168 101.924 42.404C103.279 43.1912 104.882 43.4421 106.414 43.1068L107.467 43.2668C109.185 43.6356 110.875 44.1217 112.526 44.7217C115.882 45.7891 119.132 47.1625 122.234 48.8243C123.477 49.4499 124.705 50.1045 125.933 50.7592C126.638 51.1425 127.366 51.4826 128.112 51.7776C128.168 51.823 128.233 51.8575 128.302 51.8794C129.662 52.6778 130.975 53.5521 132.235 54.4981C131.182 53.7562 133.259 56.1566 133.376 55.7493C137.894 62.5579 148.012 65.2348 155.118 58.1934C163.496 49.8281 157.91 36.2836 147.836 34.145Z" fill="#B0DCF2"/>
<path d="M103.811 23.8884C116.225 24.1648 127.205 30.7261 138.127 35.6725C142.637 37.6826 146.809 40.3716 150.497 43.645C154.401 47.0929 157.15 51.3265 160.498 55.2836C160.834 55.6765 161.595 55.2836 161.39 54.7599C159.148 49.9804 155.879 45.749 151.813 42.3647C148.006 38.9623 143.677 36.1873 138.99 34.1449C127.688 29.0967 116.473 22.7391 103.811 22.7682C103.678 22.7897 103.556 22.8579 103.468 22.9605C103.38 23.0631 103.332 23.1935 103.332 23.3283C103.332 23.4631 103.38 23.5934 103.468 23.6961C103.556 23.7987 103.678 23.8669 103.811 23.8884Z" fill="#416AB1"/>
<path d="M100.989 30.1588C106.953 30.2329 112.87 31.2142 118.535 33.0685C124.155 35.0264 129.478 37.7433 134.355 41.1428C139.4 44.4659 144.072 48.3191 148.289 52.636C152.471 57.0005 154.474 63.038 158.992 67.0388C159.115 67.1587 159.278 67.2305 159.45 67.2408C159.622 67.2511 159.792 67.1994 159.929 67.0951C160.066 66.9908 160.16 66.8409 160.195 66.6729C160.229 66.5049 160.202 66.3301 160.118 66.1805C158.656 63.3726 156.784 60.7685 155.073 58.0916C153.453 55.4082 151.541 52.9103 149.371 50.6429C145.05 46.3323 140.27 42.5029 135.115 39.2224C130.133 35.901 124.723 33.2634 119.032 31.3809C113.191 29.6396 107.116 28.8006 101.019 28.8931C100.859 28.9167 100.713 28.9965 100.608 29.118C100.503 29.2395 100.445 29.3946 100.445 29.5551C100.445 29.7155 100.503 29.8706 100.608 29.9921C100.713 30.1136 100.859 30.1934 101.019 30.217L100.989 30.1588Z" fill="#416AB1"/>
<path d="M106.531 128.796C106.297 146.05 128.053 145.92 140.16 145.469C154.62 144.959 154.781 123.093 140.16 123.079C138.626 123.066 137.092 123.149 135.569 123.326C138.2 123.006 128.726 124.228 132.513 123.748C131.051 123.937 129.588 124.068 128.039 124.199C124.383 124.49 123.535 124.752 120.319 124.781C120.202 124.781 117.19 124.504 119.003 124.781C115.435 124.155 120.055 126.963 119.222 125.319C116.064 119.034 106.545 122.279 106.458 128.753L106.531 128.796Z" fill="#B0DCF2"/>
<path d="M111.195 127.909C113.417 131.168 117.131 133.146 120.669 134.703C124.712 136.425 128.864 137.883 133.097 139.067C137.505 140.518 142.149 141.121 146.783 140.842C151.637 140.42 157.018 138.631 160.059 134.616C160.468 134.077 159.694 133.452 159.167 133.743C157.012 135.094 154.736 136.243 152.368 137.176C150.201 137.881 147.949 138.292 145.672 138.398C141.484 138.512 137.307 137.922 133.317 136.652C129.459 135.636 125.662 134.408 121.941 132.972C118.666 131.633 114.938 129.917 112.818 126.963C112.13 125.988 110.493 126.963 111.195 127.923V127.909Z" fill="#416AB1"/>
<path d="M119.12 124.795C122.305 127.023 125.83 128.728 129.559 129.844C133.262 131.237 137.04 132.422 140.876 133.393C143.913 134.152 147.084 134.206 150.146 133.554C153.479 132.574 156.426 130.592 158.582 127.88C159.021 127.356 158.451 126.425 157.793 126.876C155.252 128.68 152.411 130.025 149.4 130.848C146.392 131.381 143.301 131.221 140.364 130.382C136.972 129.567 133.668 128.345 130.319 127.356C126.737 126.44 123.295 125.051 120.085 123.224C119.061 122.584 118.257 124.097 119.163 124.795H119.12Z" fill="#416AB1"/>
<path d="M171.596 90.578C173.166 86.9174 173.287 82.8009 171.932 79.0558C168.613 69.803 162.574 74.6913 155.322 71.0396C144.824 65.7295 139.37 51.6031 130.846 43.7325C119.149 32.9376 103.958 24.4705 87.5232 25.8089C71.5568 27.0892 57.4472 37.0839 47.2123 48.8389C38.8928 58.3826 33.6291 69.9485 28.5701 81.4708C24.8563 89.9379 18.9201 96.7465 15.0601 105.33C20.6015 110.146 29.9445 107.352 35.5299 104.224C34.4187 109.331 29.3304 112.488 25.5435 115.95C48.5575 131.677 72.8142 142.137 101.355 139.519C115.041 138.282 129.413 132.885 139.253 123.123C146.681 115.761 151.886 110.204 160.176 104.021C164.811 100.544 169.432 95.9173 171.596 90.578Z" fill="#416AB1"/>
<path d="M55.0933 92.1199C58.0082 92.1199 60.8577 91.2599 63.2814 89.6485C65.7051 88.0371 67.5941 85.7468 68.7096 83.0672C69.8251 80.3876 70.117 77.439 69.5483 74.5943C68.9797 71.7496 67.576 69.1366 65.5148 67.0857C63.4536 65.0348 60.8275 63.6382 57.9685 63.0723C55.1096 62.5065 52.1462 62.7969 49.4532 63.9068C46.7601 65.0168 44.4583 66.8964 42.8388 69.308C41.2194 71.7196 40.355 74.5548 40.355 77.4552C40.3893 81.334 41.9531 85.0442 44.7097 87.787C47.4662 90.5298 51.1951 92.0858 55.0933 92.1199Z" fill="#FCFCFF"/>
<path d="M51.6278 88.454C63.6465 88.454 63.6465 69.9194 51.6278 69.9194C39.6091 69.9194 39.6091 88.454 51.6278 88.454Z" fill="#021E4B"/>
<path d="M63.2812 30.4352C64.2608 31.89 65.372 33.1994 66.3663 34.6105C67.5506 36.269 65.6206 31.9482 66.454 34.8724C66.7172 35.7889 66.9804 36.7346 67.2289 37.6657C68.1581 41.4763 68.8901 45.3318 69.4221 49.217C71.0305 58.9208 75.49 69.992 86.0027 72.9453C89.3691 73.9191 92.9643 73.7612 96.2314 72.4961C99.4985 71.231 102.255 68.9294 104.075 65.9476C107.788 59.6045 106.239 52.0976 103.387 45.8273C101.019 40.6044 97.3927 36.1672 94.6146 31.279C90.6961 24.3394 88.3275 18.3019 79.8617 15.7123C68.7496 12.3225 59.9768 25.0814 65.2404 34.6251C68.0624 39.7024 69.6268 42.9758 72.7412 48.2278C74.2033 50.8174 75.8994 53.2906 77.4785 55.8365C77.6247 56.0693 79.1892 58.7462 79.2769 58.7462C78.3411 59.0808 81.9965 50.9919 79.7302 54.0034L84.4528 49.4644L83.5317 49.9154L89.9943 48.1696C91.0178 48.0677 90.9447 50.1336 90.0967 47.7331C89.9504 47.3403 88.7223 45.2745 88.2397 44.3579C86.646 41.3173 85.3155 38.1312 83.6925 35.1343C80.5782 29.5477 74.4811 22.6664 67.2582 23.612C64.1292 24.0048 61.0734 27.2927 63.2812 30.5079V30.4352Z" fill="#57BBC9"/>
<path d="M120.641 42.03C120.875 42.9029 119.983 44.5323 119.749 45.3325C119.057 47.7121 118.568 50.1454 118.287 52.6066C117.613 57.8368 117.271 63.104 117.263 68.377C117.263 79.5647 134.809 79.5792 134.809 68.377C134.809 61.5102 135.218 54.1779 134.429 47.3693C133.888 42.7574 133.098 38.4802 128.946 35.8033C124.793 33.1265 119.486 37.5637 120.714 42.1028L120.641 42.03Z" fill="#57BBC9"/>
<path d="M111.619 117.929C118.272 111.876 118.93 101.3 119.193 92.8764C119.529 83.9582 105.361 83.9146 105.23 92.8764C105.127 100.485 102.773 108.559 104.382 116.023C105.098 119.354 109.353 119.98 111.692 117.929H111.619Z" fill="#57BBC9"/>
<path d="M130.422 143.926C145.043 131.182 148.143 113.186 147.412 94.7822C146.783 79.2009 122.805 79.0409 122.936 94.7822C122.936 102.973 126.752 111.193 123.141 119.034C119.895 126.076 115.655 132.593 117.804 140.609C119.339 146.429 126.255 147.549 130.422 143.926Z" fill="#57BBC9"/>
<path d="M95.1119 144.101C95.2289 132.724 97.7145 120.271 91.8806 109.781C86.7047 100.471 72.1565 108.879 77.5225 118.132C80.0812 122.497 78.6776 128.316 80.1689 133.059C81.6883 138.281 84.4808 143.049 88.2984 146.938C88.8633 147.472 89.5716 147.832 90.3377 147.974C91.1038 148.117 91.8949 148.035 92.6155 147.74C93.336 147.444 93.9552 146.948 94.3982 146.31C94.8412 145.672 95.0891 144.92 95.1119 144.145V144.101Z" fill="#57BBC9"/>
<path d="M85.447 83.6821C85.0791 85.3436 84.9219 87.0445 84.9791 88.7449C84.9791 89.4869 84.9791 90.1997 84.9791 90.9853C84.9791 91.349 84.9791 91.7273 84.9791 92.0765C85.0668 92.9494 85.2715 90.8107 84.9791 92.1928C84.7201 93.132 84.6825 94.118 84.8692 95.074C85.0558 96.0301 85.4617 96.9303 86.0553 97.7047C86.6488 98.4791 87.4139 99.1068 88.2911 99.5388C89.1683 99.9709 90.1339 100.196 91.1127 100.196C92.0915 100.196 93.0571 99.9709 93.9343 99.5388C94.8115 99.1068 95.5766 98.4791 96.1702 97.7047C96.7637 96.9303 97.1696 96.0301 97.3562 95.074C97.5429 94.118 97.5053 93.132 97.2463 92.1928C96.3544 89.1813 93.9419 86.3735 93.1085 83.6821C91.9827 80.1177 86.3681 79.7104 85.4323 83.6821H85.447Z" fill="#57BBC9"/>
<path d="M14.855 73.789C24.6367 73.789 24.6513 58.6733 14.855 58.6733C5.05874 58.6733 5.05874 73.789 14.855 73.789Z" fill="#57BBC9"/>
<path d="M27.0932 39.8332C31.7135 39.8332 31.7135 32.6899 27.0932 32.6899C22.4728 32.6899 22.4728 39.8332 27.0932 39.8332Z" fill="#57BBC9"/>
<path d="M6.40427 36.0651C7.25686 36.1092 8.10556 35.9232 8.86065 35.5268C9.64989 35.2673 10.3595 34.8116 10.9223 34.203C11.5409 33.6516 11.996 32.9422 12.2382 32.1516C12.6409 31.4015 12.8329 30.5571 12.7938 29.7075L12.5598 28.0199C12.2731 26.9564 11.708 25.9875 10.9223 25.2121L9.62096 24.2083C8.64287 23.6449 7.53441 23.3441 6.40427 23.3354C5.5462 23.3016 4.69422 23.4922 3.93327 23.8882C3.14404 24.1477 2.43444 24.6034 1.87167 25.2121C1.26634 25.7688 0.813475 26.4698 0.555752 27.2489C0.159052 28.0065 -0.0324395 28.8539 0.000142586 29.7075L0.234083 31.3951C0.526544 32.4563 1.0908 33.4238 1.87167 34.203L3.17297 35.2068C4.15464 35.7726 5.26977 36.0689 6.40427 36.0651Z" fill="#57BBC9"/>
<path d="M23.3941 8.84537C29.0525 8.84537 29.0672 0 23.3941 0C17.721 0 17.5456 8.84537 23.3941 8.84537Z" fill="#57BBC9"/>
</g>
<defs>
<clipPath id="clip0_219_93">
<rect width="211" height="148" fill="white"/>
</clipPath>
</defs>
</svg>
