<svg width="215" height="147" viewBox="0 0 215 147" fill="none" xmlns="http://www.w3.org/2000/svg">
<path d="M82.3296 118.606C84.7479 125.861 104.095 137.192 111.418 135.534C121.091 133.116 109.801 117.003 100.943 117.872L82.3296 118.606Z" fill="#96D4DF"/>
<path d="M78.1851 119.747C80.7529 126.988 87.5052 132.803 93.8363 136.73C100.167 140.656 109.542 145.289 116.933 141.009C136.51 129.611 103.347 98.1723 95.195 115.318L99.5425 112.832L82.3289 114.313C76.8944 114.788 76.7178 122.913 82.3289 122.913H99.5018L95.1134 120.399C97.4774 124.665 102.124 124.855 105.344 128.103C105.751 128.51 107.409 131.322 107.545 131.363C107.681 131.404 106.594 121.608 109.42 128.646C109.42 128.809 108.672 128.85 108.197 128.646C104.379 126.866 100.045 126.255 96.0781 124.217C92.4098 122.315 87.8177 120.386 86.0107 116.432C84.0271 112.044 76.5684 115.169 78.1851 119.747Z" fill="#96D4DF"/>
<path d="M117.992 34.006C117.53 26.4113 111.199 21.3165 104.162 19.9579C90.195 17.2407 76.0519 27.4303 69.7343 39.1959C69.5456 39.5213 69.4373 39.8871 69.4184 40.2628C69.3995 40.6385 69.4705 41.0133 69.6256 41.3561C67.5469 44.2771 66.9084 48.5432 69.9381 51.2196C74.6525 55.2955 80.1413 55.934 86.2415 55.934C89.5701 55.934 92.3552 55.6215 95.5887 56.6813C99.3249 57.8904 102.572 59.0724 106.566 58.5833C109.501 58.2165 112.517 56.7764 113.196 53.5429C114.555 46.8177 118.441 41.1387 117.992 34.006Z" fill="#96D4DF"/>
<path d="M137.351 57.2511C137.107 53.0802 133.615 50.2679 129.743 49.5206C122.053 48.0397 114.269 53.5965 110.791 60.1042C110.699 60.2903 110.652 60.4948 110.652 60.702C110.652 60.9093 110.699 61.1137 110.791 61.2998C110.122 62.0578 109.769 63.0422 109.801 64.0521C109.834 65.062 110.251 66.0213 110.967 66.7343C113.549 68.9896 116.578 69.3292 119.907 69.3292C121.63 69.1761 123.367 69.3186 125.042 69.7504C126.95 70.5607 129.019 70.9188 131.088 70.7965C131.905 70.7871 132.697 70.5189 133.351 70.0306C134.005 69.5424 134.488 68.8592 134.729 68.0793C135.463 64.3024 137.596 61.1775 137.351 57.2511Z" fill="#96D4DF"/>
<path d="M206.424 78.4314C207.43 77.6434 208.421 76.8282 209.386 75.9723C217.538 68.6358 215.187 56.5849 203.802 55.2263C194.156 54.0714 185.094 60.0086 177.01 64.261C163.641 71.3123 147.121 74.111 132.923 67.5625C124.024 63.4866 120.166 56.2316 114.038 49.2212C95.6564 28.1627 62.6556 37.8632 42.3172 51.0281C28.5408 59.8999 19.9408 69.3694 12.6178 83.7028C8.99034 84.3685 6.11008 88.5802 8.542 92.2485C23.1063 115.06 55.0338 124.393 80.6029 125.602C94.5695 126.323 109.487 125.045 122.421 119.529C133.426 114.802 142.977 103.389 155.164 100.509C168.03 97.4792 183.695 104.204 196.697 105.25C208.367 106.201 217.782 95.5364 211.764 84.287C210.423 81.976 208.602 79.9793 206.424 78.4314Z" fill="#1CBBD5"/>
<path d="M48.0918 92.8194C50.8004 92.8194 53.4481 92.0162 55.7002 90.5114C57.9524 89.0066 59.7077 86.8677 60.7442 84.3653C61.7807 81.8629 62.0519 79.1093 61.5235 76.4528C60.9951 73.7963 59.6908 71.3561 57.7755 69.4408C55.8603 67.5256 53.4201 66.2213 50.7635 65.6928C48.107 65.1644 45.3534 65.4356 42.851 66.4722C40.3486 67.5087 38.2098 69.264 36.705 71.5161C35.2002 73.7682 34.397 76.4159 34.397 79.1245C34.4324 82.7457 35.8866 86.2085 38.4472 88.7691C41.0079 91.3298 44.4707 92.784 48.0918 92.8194Z" fill="#FCFCFF"/>
<path d="M44.8445 89.3961C55.9987 89.3961 55.9987 72.0874 44.8445 72.0874C33.6902 72.0874 33.7038 89.3961 44.8445 89.3961Z" fill="#021E4B"/>
<path d="M10.7692 75.0894C10.5987 78.2809 11.2233 81.4647 12.5867 84.3553C13.9502 87.2458 16.01 89.7527 18.5812 91.6509C24.0157 95.7268 30.8087 97.7375 37.4931 98.7565C41.1253 99.3649 44.8244 99.4655 48.4843 99.0554C48.6257 99.0339 48.7546 98.9624 48.8478 98.854C48.941 98.7456 48.9922 98.6073 48.9922 98.4644C48.9922 98.3214 48.941 98.1832 48.8478 98.0747C48.7546 97.9663 48.6257 97.8949 48.4843 97.8734C40.5636 96.8136 32.5478 96.1479 25.1161 92.9144C17.6845 89.6809 11.8561 83.7166 12.0463 75.0894C12.0463 74.2742 10.8099 74.2742 10.7692 75.0894Z" fill="#021E4B"/>
<path d="M61.5281 27.4017C69.0684 25.785 74.7338 40.8928 76.0924 46.3952C77.8722 53.7317 78.307 62.9703 72.1796 68.4183C71.8605 68.7432 71.6194 69.1364 71.4747 69.5683C71.33 70.0001 71.2854 70.4591 71.3443 70.9107C71.4032 71.3623 71.564 71.7946 71.8147 72.1749C72.0653 72.5551 72.3992 72.8734 72.791 73.1055C81.0514 77.9558 84.1083 95.9574 74.1496 100.441C71.772 101.501 71.8943 105.454 74.1496 106.555C80.3041 109.544 80.3449 120.372 79.3124 126.187C78.8949 128.434 77.8665 130.523 76.3398 132.225C74.8132 133.927 72.8473 135.175 70.658 135.833C67.0848 137.096 63.4301 135.833 59.9521 137.069C59.6114 137.178 59.2992 137.362 59.0384 137.607C58.7776 137.851 58.5748 138.151 58.4446 138.485C58.3145 138.818 58.2603 139.176 58.286 139.533C58.3118 139.89 58.4168 140.236 58.5935 140.547C61.6096 146.05 69.5303 144.501 74.3398 142.449C79.7743 140.153 84.5158 135.738 86.0511 129.977C88.32 121.105 87.5591 104.748 77.6684 100.509V106.623C91.7301 99.5849 88.1298 75.0076 75.78 68.0107L76.3913 72.6979C84.8012 64.981 83.8909 51.6802 80.4672 41.7487C78.7971 36.7081 76.0792 32.0779 72.4921 28.1626C68.688 24.1682 65.699 23.8829 61.1205 26.505C61.007 26.572 60.9217 26.678 60.8805 26.8031C60.8393 26.9283 60.8449 27.0642 60.8965 27.1855C60.948 27.3068 61.0418 27.4053 61.1605 27.4625C61.2792 27.5198 61.4147 27.532 61.5417 27.4968L61.5281 27.4017Z" fill="#0A4681"/>
<path d="M84.094 27.4023C91.6343 25.7448 97.3133 40.8933 98.6448 46.4229C100.425 53.7594 100.859 62.998 94.732 68.446C94.4128 68.7709 94.1718 69.1642 94.027 69.596C93.8823 70.0278 93.8377 70.4869 93.8966 70.9385C93.9555 71.3901 94.1164 71.8223 94.367 72.2026C94.6177 72.5828 94.9515 72.9011 95.3433 73.1332C103.604 77.9835 106.661 95.9851 96.7019 100.469C94.338 101.528 94.4466 105.482 96.7019 106.582C102.856 109.571 102.897 120.399 101.865 126.214C101.444 128.455 100.415 130.538 98.8916 132.234C97.3678 133.93 95.4072 135.175 93.2239 135.833C89.6507 137.097 85.9961 135.833 82.518 137.07C82.1773 137.179 81.8651 137.362 81.6043 137.607C81.3436 137.852 81.1407 138.152 81.0105 138.485C80.8804 138.818 80.8262 139.176 80.8519 139.533C80.8777 139.89 80.9827 140.237 81.1594 140.548C84.1755 146.05 92.0283 144.501 96.9057 142.45C102.34 140.154 107.082 135.738 108.617 129.978C110.981 121.079 110.179 104.721 100.289 100.414V106.528C114.35 99.4904 110.75 74.913 98.4002 67.9162L99.0116 72.6034C107.34 64.9136 106.457 51.5992 103.02 41.6813C101.349 36.6407 98.6315 32.0105 95.0444 28.0952C91.2403 24.1008 88.2514 23.8155 83.6728 26.4377C83.5593 26.5046 83.474 26.6106 83.4328 26.7358C83.3916 26.8609 83.3973 26.9968 83.4488 27.1181C83.5003 27.2394 83.5941 27.3379 83.7128 27.3952C83.8315 27.4524 83.967 27.4646 84.094 27.4295V27.4023Z" fill="#0A4681"/>
<path d="M108.931 41.0022C116.608 39.9833 122.259 52.3467 123.876 58.4197C125.642 65.2127 125.697 73.0927 119.8 77.8343C119.499 78.1422 119.271 78.5146 119.134 78.9232C118.997 79.3319 118.954 79.7663 119.009 80.1939C119.064 80.6214 119.215 81.031 119.451 81.3917C119.687 81.7525 120.001 82.0552 120.371 82.2769C127.721 86.2169 132.218 102.384 122.531 106.338C120.208 107.275 118.795 111.134 121.73 112.452C127.721 115.169 128.4 125.209 126.811 130.793C125.67 134.801 122.124 137.342 118.238 138.564C114.638 139.692 110.969 138.483 107.505 139.746C107.176 139.84 106.872 140.007 106.617 140.235C106.362 140.463 106.161 140.745 106.03 141.062C105.9 141.378 105.842 141.72 105.862 142.061C105.882 142.403 105.979 142.735 106.146 143.034C112.45 152.898 130.601 142.273 133.237 133.836C136.063 124.652 134.256 110.305 124.297 106.338L125.085 112.452C138.875 106.134 135.316 83.622 123.224 77.3859L123.795 81.8422C131.946 75.0491 131.308 62.9574 127.87 53.8275C124.868 45.8389 118.061 34.7662 108.7 40.0512C108.293 40.2822 108.442 41.0702 108.959 41.0022H108.931Z" fill="#0A4681"/>
<path d="M178.695 78.7718C182.13 76.09 185.831 73.7682 189.74 71.8428C193.001 70.1446 196.452 68.7588 199.142 66.1774C199.984 65.3894 199.142 64.2482 198.11 64.4112C194.034 65.0769 190.27 67.3051 186.684 69.2751C182.968 71.2601 179.455 73.6035 176.195 76.2719C174.429 77.7392 176.942 80.1983 178.695 78.7718Z" fill="#0A4681"/>
<path d="M179.129 83.2682C180.066 82.8777 181.063 82.6525 182.077 82.6025C182.801 82.6502 183.527 82.6502 184.251 82.6025C185.721 82.3307 187.169 81.9539 188.585 81.4748C191.493 80.4048 194.516 79.6798 197.593 79.3146C197.742 79.3146 197.756 79.0701 197.593 79.0701C194.4 78.8935 191.425 79.9939 188.449 80.9586C186.882 81.5553 185.249 81.9613 183.585 82.1677C182.002 82.1457 180.432 82.4606 178.98 83.0916C178.803 83.1731 178.98 83.4177 179.129 83.3361V83.2682Z" fill="#0A4681"/>
<path d="M179.523 91.6102C183.857 92.7242 188.109 94.2051 192.43 95.3871C196.057 96.3789 199.712 97.4658 203.299 95.8219C203.523 95.6732 203.707 95.4713 203.834 95.2342C203.961 94.9972 204.028 94.7323 204.028 94.4633C204.028 94.1942 203.961 93.9294 203.834 93.6923C203.707 93.4552 203.523 93.2534 203.299 93.1046C199.685 91.1211 194.807 90.9444 190.786 89.9662C187.148 88.9052 183.32 88.664 179.577 89.2598C178.327 89.4771 178.436 91.3928 179.577 91.6781L179.523 91.6102Z" fill="#0A4681"/>
<path d="M9.75077 61.9789C17.7258 61.9789 17.7394 49.5884 9.75077 49.5884C1.76211 49.5884 1.76211 61.9789 9.75077 61.9789Z" fill="#57BBC9"/>
<path d="M26.3664 36.6538C32.1949 36.6538 32.2084 27.6055 26.3664 27.6055C20.5244 27.6055 20.5244 36.6538 26.3664 36.6538Z" fill="#57BBC9"/>
<path d="M6.24623 21.1382C14.561 21.1382 14.5745 8.21777 6.24623 8.21777C-2.08208 8.21777 -2.08208 21.1382 6.24623 21.1382Z" fill="#57BBC9"/>
<path d="M25.4846 4.18251L25.8243 3.85644C26.0118 3.68136 26.152 3.4617 26.2318 3.2179C26.3665 2.98312 26.428 2.71345 26.4085 2.44349C26.392 1.93314 26.1834 1.44786 25.8243 1.08487L25.4846 0.690872L24.9819 0.31046L24.4656 0.0659095C24.1455 -0.0219698 23.8076 -0.0219698 23.4874 0.0659095C23.2671 0.0680385 23.0513 0.129016 22.8625 0.242529C22.6557 0.29392 22.4675 0.402165 22.319 0.555011C22.0937 0.626342 21.8949 0.763582 21.7484 0.949009C21.5956 1.09744 21.4873 1.28569 21.4359 1.49245C21.2814 1.78495 21.2065 2.11291 21.2185 2.44349C21.2351 2.87625 21.3513 3.29936 21.5582 3.67982L21.9386 4.18251L22.4413 4.56292L23.0255 4.80747C23.3503 4.89518 23.6925 4.89518 24.0173 4.80747C24.238 4.80811 24.4545 4.74693 24.6423 4.63085C24.9456 4.53771 25.2179 4.36397 25.4303 4.12817L25.4846 4.18251Z" fill="#57BBC9"/>
</svg>
